<?xml version="1.0" encoding="UTF-8"?>
<svg width="120" height="40" viewBox="0 0 120 40" xmlns="http://www.w3.org/2000/svg">
    <rect width="120" height="40" rx="5" fill="#000"/>
    <path d="M24,11.5c0.3,0.1,0.6,0.2,0.9,0.3c1.4,0.4,2.6,1.3,3.4,2.4c-0.2,0.1-0.4,0.2-0.6,0.3 c-0.9,0.5-1.8,0.9-2.7,1.4c-0.4,0.2-0.8,0.4-1.2,0.7c-0.4,0.2-0.7,0.5-1,0.8c-0.3,0.3-0.5,0.7-0.7,1.1c-0.2,0.4-0.3,0.8-0.3,1.3 c0,0.5,0.1,0.9,0.3,1.3c0.2,0.4,0.4,0.8,0.7,1.1c0.3,0.3,0.6,0.6,1,0.8c0.4,0.2,0.8,0.4,1.2,0.7c0.9,0.5,1.8,0.9,2.7,1.4 c0.2,0.1,0.4,0.2,0.6,0.3c-0.8,1.1-2,2-3.4,2.4c-0.3,0.1-0.6,0.2-0.9,0.3c-1.4-0.7-2.6-1.7-3.5-3c-0.9-1.3-1.4-2.8-1.4-4.3 s0.5-3,1.4-4.3C21.4,13.2,22.6,12.2,24,11.5z" fill="#fff"/>
    <text x="45" y="20" fill="#fff" font-family="Arial" font-size="14">Download on the</text>
    <text x="45" y="35" fill="#fff" font-family="Arial" font-weight="bold" font-size="18">App Store</text>
</svg> 